<svg width="499" height="140" viewBox="0 0 499 140" fill="none" xmlns="http://www.w3.org/2000/svg">
<path d="M176.064 42H186.432V90H176.064V83.088C172.16 88.528 166.56 91.248 159.264 91.248C152.672 91.248 147.04 88.816 142.368 83.952C137.696 79.024 135.36 73.04 135.36 66C135.36 58.896 137.696 52.912 142.368 48.048C147.04 43.184 152.672 40.752 159.264 40.752C166.56 40.752 172.16 43.44 176.064 48.816V42ZM150.048 77.04C152.928 79.92 156.544 81.36 160.896 81.36C165.248 81.36 168.864 79.92 171.744 77.04C174.624 74.096 176.064 70.416 176.064 66C176.064 61.584 174.624 57.936 171.744 55.056C168.864 52.112 165.248 50.64 160.896 50.64C156.544 50.64 152.928 52.112 150.048 55.056C147.168 57.936 145.728 61.584 145.728 66C145.728 70.416 147.168 74.096 150.048 77.04ZM249.973 40.752C255.413 40.752 259.797 42.512 263.125 46.032C266.453 49.552 268.117 54.288 268.117 60.24V90H257.749V60.912C257.749 57.584 256.917 55.024 255.253 53.232C253.589 51.376 251.317 50.448 248.437 50.448C245.237 50.448 242.677 51.504 240.757 53.616C238.901 55.728 237.973 58.896 237.973 63.12V90H227.605V60.912C227.605 57.584 226.805 55.024 225.205 53.232C223.669 51.376 221.461 50.448 218.581 50.448C215.445 50.448 212.885 51.536 210.901 53.712C208.917 55.824 207.925 58.96 207.925 63.12V90H197.557V42H207.925V47.76C210.997 43.088 215.573 40.752 221.653 40.752C227.797 40.752 232.341 43.28 235.285 48.336C238.485 43.28 243.381 40.752 249.973 40.752ZM305.421 40.752C312.013 40.752 317.645 43.184 322.317 48.048C326.989 52.912 329.325 58.896 329.325 66C329.325 73.04 326.989 79.024 322.317 83.952C317.645 88.816 312.013 91.248 305.421 91.248C298.125 91.248 292.525 88.528 288.621 83.088V90H278.253V22.8H288.621V48.816C292.525 43.44 298.125 40.752 305.421 40.752ZM292.941 77.04C295.821 79.92 299.437 81.36 303.789 81.36C308.141 81.36 311.757 79.92 314.637 77.04C317.517 74.096 318.957 70.416 318.957 66C318.957 61.584 317.517 57.936 314.637 55.056C311.757 52.112 308.141 50.64 303.789 50.64C299.437 50.64 295.821 52.112 292.941 55.056C290.061 57.936 288.621 61.584 288.621 66C288.621 70.416 290.061 74.096 292.941 77.04ZM347.554 32.88C346.274 34.16 344.738 34.8 342.946 34.8C341.154 34.8 339.586 34.16 338.242 32.88C336.962 31.536 336.322 29.968 336.322 28.176C336.322 26.384 336.962 24.848 338.242 23.568C339.522 22.224 341.09 21.552 342.946 21.552C344.802 21.552 346.37 22.224 347.65 23.568C348.93 24.848 349.57 26.384 349.57 28.176C349.57 29.968 348.898 31.536 347.554 32.88ZM337.762 90V42H348.13V90H337.762ZM367.368 70.416C368.136 74.064 369.896 76.88 372.648 78.864C375.4 80.784 378.76 81.744 382.728 81.744C388.232 81.744 392.36 79.76 395.112 75.792L403.656 80.784C398.92 87.76 391.912 91.248 382.632 91.248C374.824 91.248 368.52 88.88 363.72 84.144C358.92 79.344 356.52 73.296 356.52 66C356.52 58.832 358.888 52.848 363.624 48.048C368.36 43.184 374.44 40.752 381.864 40.752C388.904 40.752 394.664 43.216 399.144 48.144C403.688 53.072 405.96 59.056 405.96 66.096C405.96 67.184 405.832 68.624 405.576 70.416H367.368ZM367.272 61.968H395.496C394.792 58.064 393.16 55.12 390.6 53.136C388.104 51.152 385.16 50.16 381.768 50.16C377.928 50.16 374.728 51.216 372.168 53.328C369.608 55.44 367.976 58.32 367.272 61.968ZM439.371 40.752C444.875 40.752 449.323 42.512 452.715 46.032C456.107 49.552 457.803 54.384 457.803 60.528V90H447.435V61.584C447.435 58 446.475 55.248 444.555 53.328C442.635 51.408 440.011 50.448 436.683 50.448C433.035 50.448 430.091 51.6 427.851 53.904C425.611 56.144 424.491 59.6 424.491 64.272V90H414.123V42H424.491V48.144C427.627 43.216 432.587 40.752 439.371 40.752ZM494.791 51.984H482.887V75.024C482.887 77.008 483.335 78.448 484.231 79.344C485.127 80.176 486.439 80.656 488.167 80.784C489.959 80.848 492.167 80.816 494.791 80.688V90C486.855 90.96 481.159 90.288 477.703 87.984C474.247 85.616 472.519 81.296 472.519 75.024V51.984H463.687V42H472.519V31.632L482.887 28.56V42H494.791V51.984Z" fill="#151515"/>
<path d="M359.392 114.716C359.392 116.108 360.628 117.128 363.1 117.776C363.796 117.944 364.252 118.064 364.468 118.136C364.684 118.184 365.104 118.316 365.728 118.532C366.376 118.724 366.82 118.892 367.06 119.036C367.324 119.18 367.684 119.408 368.14 119.72C368.596 120.008 368.92 120.308 369.112 120.62C369.304 120.908 369.484 121.292 369.652 121.772C369.82 122.228 369.904 122.72 369.904 123.248C369.904 124.784 369.292 126.032 368.068 126.992C366.892 127.952 365.332 128.432 363.388 128.432C361.708 128.432 360.256 128.06 359.032 127.316C357.808 126.548 356.944 125.54 356.44 124.292L358.456 123.104C358.792 124.04 359.392 124.784 360.256 125.336C361.144 125.864 362.188 126.128 363.388 126.128C364.612 126.128 365.608 125.888 366.376 125.408C367.144 124.928 367.528 124.208 367.528 123.248C367.528 121.856 366.292 120.836 363.82 120.188C363.124 120.02 362.668 119.912 362.452 119.864C362.236 119.792 361.804 119.66 361.156 119.468C360.532 119.252 360.088 119.072 359.824 118.928C359.584 118.784 359.236 118.568 358.78 118.28C358.324 117.968 358 117.668 357.808 117.38C357.616 117.068 357.436 116.684 357.268 116.228C357.1 115.748 357.016 115.244 357.016 114.716C357.016 113.252 357.592 112.028 358.744 111.044C359.944 110.06 361.42 109.568 363.172 109.568C364.612 109.568 365.884 109.892 366.988 110.54C368.116 111.188 368.944 112.088 369.472 113.24L367.492 114.392C366.82 112.712 365.38 111.872 363.172 111.872C362.092 111.872 361.192 112.124 360.472 112.628C359.752 113.132 359.392 113.828 359.392 114.716ZM381.368 128.432C378.656 128.432 376.4 127.532 374.6 125.732C372.8 123.884 371.9 121.64 371.9 119C371.9 116.336 372.8 114.104 374.6 112.304C376.4 110.48 378.656 109.568 381.368 109.568C383.144 109.568 384.74 110 386.156 110.864C387.572 111.704 388.604 112.844 389.252 114.284L387.308 115.4C386.828 114.32 386.048 113.468 384.968 112.844C383.912 112.196 382.712 111.872 381.368 111.872C379.376 111.872 377.696 112.568 376.328 113.96C374.96 115.328 374.276 117.008 374.276 119C374.276 120.968 374.96 122.66 376.328 124.076C377.696 125.444 379.376 126.128 381.368 126.128C382.688 126.128 383.876 125.816 384.932 125.192C386.012 124.568 386.852 123.704 387.452 122.6L389.432 123.752C388.688 125.192 387.596 126.332 386.156 127.172C384.716 128.012 383.12 128.432 381.368 128.432ZM395.4 104.456C395.4 104.936 395.232 105.344 394.896 105.68C394.56 106.016 394.152 106.184 393.672 106.184C393.192 106.184 392.784 106.016 392.448 105.68C392.112 105.344 391.944 104.936 391.944 104.456C391.944 103.976 392.112 103.568 392.448 103.232C392.784 102.896 393.192 102.728 393.672 102.728C394.152 102.728 394.56 102.896 394.896 103.232C395.232 103.568 395.4 103.976 395.4 104.456ZM394.86 128H392.484V110H394.86V128ZM407.858 109.568C410.546 109.568 412.694 110.516 414.302 112.412C415.958 114.284 416.786 116.504 416.786 119.072C416.786 119.192 416.762 119.564 416.714 120.188H400.91C401.15 121.988 401.918 123.428 403.214 124.508C404.51 125.588 406.13 126.128 408.074 126.128C410.81 126.128 412.742 125.108 413.87 123.068L415.958 124.292C415.166 125.588 414.074 126.608 412.682 127.352C411.314 128.072 409.766 128.432 408.038 128.432C405.206 128.432 402.902 127.544 401.126 125.768C399.35 123.992 398.462 121.736 398.462 119C398.462 116.288 399.338 114.044 401.09 112.268C402.842 110.468 405.098 109.568 407.858 109.568ZM407.858 111.872C405.986 111.872 404.414 112.424 403.142 113.528C401.894 114.632 401.15 116.084 400.91 117.884H414.338C414.074 115.964 413.342 114.488 412.142 113.456C410.894 112.4 409.466 111.872 407.858 111.872ZM428.629 109.568C430.789 109.568 432.505 110.24 433.777 111.584C435.049 112.904 435.685 114.692 435.685 116.948V128H433.309V116.948C433.309 115.34 432.877 114.092 432.013 113.204C431.173 112.316 429.973 111.872 428.413 111.872C426.613 111.872 425.185 112.436 424.129 113.564C423.097 114.692 422.581 116.36 422.581 118.568V128H420.205V110H422.581V112.808C423.925 110.648 425.941 109.568 428.629 109.568ZM449.459 110V112.304H444.275V123.212C444.275 124.196 444.467 124.904 444.851 125.336C445.235 125.744 445.811 125.96 446.579 125.984C447.347 125.984 448.307 125.96 449.459 125.912V128C446.891 128.384 444.983 128.204 443.735 127.46C442.511 126.692 441.899 125.276 441.899 123.212V112.304H438.119V110H441.899V105.68L444.275 104.96V110H449.459ZM455.975 104.456C455.975 104.936 455.807 105.344 455.471 105.68C455.135 106.016 454.727 106.184 454.247 106.184C453.767 106.184 453.359 106.016 453.023 105.68C452.687 105.344 452.519 104.936 452.519 104.456C452.519 103.976 452.687 103.568 453.023 103.232C453.359 102.896 453.767 102.728 454.247 102.728C454.727 102.728 455.135 102.896 455.471 103.232C455.807 103.568 455.975 103.976 455.975 104.456ZM455.435 128H453.059V110H455.435V128ZM463.933 110H473.653V128H471.277V112.304H463.933V128H461.557V112.304H458.497V110H461.557V109.28C461.557 104.672 464.077 102.368 469.117 102.368C470.125 102.368 471.277 102.512 472.573 102.8V104.96C471.373 104.768 470.221 104.672 469.117 104.672C467.293 104.672 465.973 105.032 465.157 105.752C464.341 106.448 463.933 107.624 463.933 109.28V110ZM486.708 128.432C483.996 128.432 481.74 127.532 479.94 125.732C478.14 123.884 477.24 121.64 477.24 119C477.24 116.336 478.14 114.104 479.94 112.304C481.74 110.48 483.996 109.568 486.708 109.568C488.484 109.568 490.08 110 491.496 110.864C492.912 111.704 493.944 112.844 494.592 114.284L492.648 115.4C492.168 114.32 491.388 113.468 490.308 112.844C489.252 112.196 488.052 111.872 486.708 111.872C484.716 111.872 483.036 112.568 481.668 113.96C480.3 115.328 479.616 117.008 479.616 119C479.616 120.968 480.3 122.66 481.668 124.076C483.036 125.444 484.716 126.128 486.708 126.128C488.028 126.128 489.216 125.816 490.272 125.192C491.352 124.568 492.192 123.704 492.792 122.6L494.772 123.752C494.028 125.192 492.936 126.332 491.496 127.172C490.056 128.012 488.46 128.432 486.708 128.432Z" fill="#151515"/>
<path fill-rule="evenodd" clip-rule="evenodd" d="M29.1451 42.8125H72.7014C75.8412 42.8125 78.409 45.3803 78.409 48.5201V98.6849C78.409 101.824 75.8412 104.392 72.7014 104.392H29.1451C26.005 104.392 23.4375 101.824 23.4375 98.6849V48.5201C23.4375 45.3803 26.005 42.8125 29.1451 42.8125Z" fill="#53D824"/>
<path fill-rule="evenodd" clip-rule="evenodd" d="M71.2404 67.6334C71.0577 68.084 71.275 68.5977 71.7259 68.7803C71.8548 68.8325 71.9889 68.852 72.1187 68.8428C72.3827 69.1879 72.6092 69.566 72.7928 69.9717C73.1448 70.7503 73.3263 71.5452 73.3553 72.3182C73.3985 73.4765 73.1059 74.5947 72.5382 75.5416C71.975 76.4806 71.1387 77.252 70.09 77.7261C69.4231 78.0277 68.6717 78.2104 67.8518 78.241C67.3669 78.2583 66.9874 78.6654 67.0047 79.1506C67.0217 79.6355 67.429 80.0147 67.914 79.9977C68.9774 79.9579 69.9507 79.7215 70.8136 79.3314C71.4527 79.0421 72.0319 78.6694 72.544 78.2293C73.2641 79.5443 73.4987 80.8955 73.333 82.1365C73.1371 83.6004 72.378 84.9201 71.1999 85.8455C71.114 85.9132 71.0268 85.9781 70.9387 86.0405L70.9199 85.9926C70.3997 86.3465 69.8477 86.5863 69.3112 86.7114C69.5316 87.287 69.6573 87.8717 69.6944 88.45C69.7887 89.9285 69.3029 91.3727 68.3296 92.5091C67.7764 93.1547 67.1324 93.6557 66.441 94.0115C65.9724 94.2526 65.4822 94.4269 64.9834 94.5348L64.9741 94.5365C64.7192 94.5913 64.4617 94.6286 64.2043 94.6488C64.0832 95.2427 63.7635 95.859 63.2765 96.4095L63.3028 96.4113C62.8432 96.9002 62.3549 97.2949 61.8495 97.6061C60.6358 98.3534 59.3109 98.6263 58.0555 98.5716C56.792 98.5166 55.6037 98.1312 54.6694 97.5631C54.0108 97.1623 53.4906 96.6799 53.1776 96.1711C52.7062 95.4062 52.4043 94.5619 52.2605 93.6956C52.2234 93.4721 52.1969 93.2471 52.1806 93.0221L51.9063 80.5261V50.0959C52.0693 49.9228 52.0448 49.7698 52.2384 49.6416L52.2263 49.6275C53.0456 49.0507 53.9632 48.7281 54.8965 48.6168C56.0246 48.4827 57.183 48.6496 58.2289 49.0461C59.2092 49.4176 60.0863 49.9906 60.7412 50.7052C60.3605 50.8016 59.9837 50.9403 59.6178 51.1224C58.9706 51.4448 58.3952 51.8901 57.9185 52.4282C57.4435 52.965 57.0712 53.5903 56.8288 54.2742C56.6672 54.7325 56.9076 55.2354 57.366 55.397C57.8246 55.5583 58.3275 55.3179 58.4888 54.8596C58.6566 54.387 58.911 53.9577 59.2346 53.5924C59.5566 53.229 59.9519 52.9245 60.4031 52.6998C61.3572 52.2248 62.4123 52.1806 63.346 52.4937C64.2797 52.8065 65.095 53.4772 65.57 54.4312C65.8676 55.0286 66.0008 55.6795 65.9724 56.3214C65.9474 56.8857 65.7959 57.447 65.5206 57.9623C63.6492 58.0176 61.8884 58.7593 60.5502 60.0626C59.2543 61.3245 58.3618 63.1081 58.1615 65.2953C58.1176 65.7784 58.4739 66.2056 58.957 66.2494C59.4401 66.293 59.8675 65.9366 59.9111 65.4536C60.0706 63.7123 60.7672 62.3058 61.7763 61.3233C62.8355 60.2919 64.2482 59.7224 65.7462 59.7224C66.5989 59.7224 67.3984 59.8852 68.1176 60.1785C69.1904 60.6159 70.0869 61.3418 70.7138 62.2461C71.3371 63.1458 71.6953 64.2269 71.6953 65.3797C71.6953 65.6014 71.682 65.8257 71.6548 66.0519L71.6487 66.0479C71.6452 66.0937 71.6417 66.1394 71.6375 66.1848C71.5692 66.6617 71.4385 67.147 71.2404 67.6334ZM33.5655 64.5304C33.6937 64.1256 34.1263 63.9011 34.5312 64.0294C34.9361 64.1576 35.1605 64.5903 35.0322 64.9952C34.5047 66.6567 34.7698 68.0342 35.5032 69.064C36.0141 69.7814 36.7537 70.3451 37.6138 70.7308C38.4987 71.1276 39.5068 71.3369 40.5255 71.3344C42.4507 71.33 44.407 70.5682 45.6305 68.8913C45.8806 68.5479 46.3618 68.4722 46.7052 68.7222C47.0485 68.9722 47.1243 69.4535 46.8742 69.7968C45.3333 71.9086 42.9034 72.868 40.5255 72.8735C39.2911 72.8762 38.0656 72.6213 36.9858 72.137C35.8818 71.642 34.9228 70.9052 34.2478 69.9572C33.2471 68.5522 32.8735 66.7093 33.5655 64.5304ZM62.9247 90.5466C62.5699 90.7796 62.0924 90.6811 61.8594 90.3263C61.6264 89.9715 61.725 89.494 62.0798 89.2609C63.5361 88.3047 64.1984 87.0678 64.2781 85.8065C64.3338 84.9276 64.1146 84.0229 63.69 83.1805C63.2542 82.316 62.6046 81.5195 61.8134 80.8801C60.3153 79.6695 58.3151 79.0269 56.3074 79.5573C55.8958 79.6655 55.4739 79.4198 55.3657 79.0081C55.2576 78.5964 55.5033 78.1745 55.9149 78.0664C58.4412 77.3992 60.931 78.1854 62.7795 79.6791C63.7416 80.4567 64.5331 81.4283 65.0666 82.4863C65.6108 83.5665 65.8905 84.7421 65.8173 85.903C65.7082 87.6244 64.8366 89.2912 62.9247 90.5466ZM39.1134 89.2609C39.4682 89.494 39.5668 89.9715 39.3338 90.3263C39.1007 90.6811 38.6232 90.7796 38.2684 90.5466C36.3566 89.2912 35.485 87.6244 35.3759 85.903C35.3027 84.7421 35.5823 83.5665 36.1266 82.4863C36.6601 81.4283 37.4516 80.4567 38.4137 79.6791C40.2622 78.1854 42.752 77.3992 45.2783 78.0664C45.6899 78.1745 45.9356 78.5964 45.8274 79.0081C45.7193 79.4198 45.2974 79.6655 44.8858 79.5573C42.8781 79.0269 40.8778 79.6695 39.3798 80.8801C38.5886 81.5195 37.9389 82.316 37.5032 83.1805C37.0785 84.0229 36.8594 84.9276 36.915 85.8065C36.9948 87.0678 37.6571 88.3047 39.1134 89.2609ZM65.9486 64.9952C65.8204 64.5903 66.0448 64.1576 66.4496 64.0294C66.8545 63.9011 67.2871 64.1256 67.4154 64.5304C68.1074 66.7093 67.7338 68.5522 66.733 69.9572C66.058 70.9052 65.099 71.642 63.995 72.137C62.9152 72.6213 61.6897 72.8763 60.4554 72.8735C58.0775 72.8683 55.6475 71.9086 54.1066 69.7968C53.8566 69.4535 53.9323 68.9722 54.2757 68.7222C54.6191 68.4722 55.1002 68.5479 55.3503 68.8913C56.5739 70.5682 58.5302 71.3298 60.4554 71.3344C61.474 71.3371 62.4822 71.1276 63.3671 70.7308C64.2272 70.3451 64.9668 69.7814 65.4776 69.064C66.211 68.0342 66.4761 66.6567 65.9486 64.9952ZM50.9245 95.5169C51.1202 96.0615 51.3723 96.5906 51.6826 97.0944C52.1425 97.8414 52.8639 98.5238 53.7534 99.065C54.9241 99.777 56.4082 100.26 57.9795 100.328C59.5588 100.397 61.2314 100.05 62.7727 99.1012C63.8535 98.4354 64.8626 97.478 65.7187 96.1662C66.241 96.0259 66.7534 95.8291 67.2467 95.575C68.134 95.1186 68.9592 94.4776 69.666 93.6524C70.9391 92.1661 71.5745 90.2758 71.4508 88.3399C71.4394 88.1619 71.4218 87.9839 71.3977 87.8055L71.4021 87.838C71.7053 87.6581 72.0014 87.4557 72.2885 87.2301C73.8261 86.0226 74.8182 84.2912 75.0759 82.3639C75.3115 80.5998 74.9279 78.6792 73.7773 76.8611C73.8718 76.7254 73.9618 76.586 74.0468 76.4438C74.7866 75.2103 75.1684 73.7575 75.1118 72.256C75.0744 71.2544 74.8438 70.2347 74.3979 69.2485C74.0851 68.5565 73.6759 67.9258 73.1873 67.3713C73.3714 66.6987 73.4586 66.0312 73.4586 65.3797C73.4586 63.8632 72.9851 62.4377 72.1602 61.2473C71.339 60.0616 70.1711 59.1135 68.7791 58.5458C68.3334 58.364 67.8649 58.2212 67.3781 58.122C67.5855 57.5669 67.703 56.9846 67.7289 56.3974C67.771 55.4582 67.5784 54.5106 67.1475 53.6459C66.4571 52.2594 65.2682 51.2834 63.9043 50.8266C63.5841 50.7191 63.2543 50.6405 62.9195 50.592C62.7441 50.3104 62.545 50.0407 62.325 49.7838C61.463 48.7788 60.2728 47.9761 58.9358 47.4696C57.6041 46.9649 56.1199 46.7535 54.6636 46.9269C53.3451 47.0838 52.0548 47.5509 50.9246 48.3943C49.7943 47.5512 48.504 47.0838 47.1855 46.9269C45.7293 46.7535 44.2452 46.9649 42.9133 47.4696C41.5764 47.9761 40.3862 48.7788 39.5242 49.7838C39.3041 50.0407 39.1052 50.3104 38.9296 50.592C38.5949 50.6405 38.2651 50.7191 37.9449 50.8266C36.581 51.2834 35.392 52.2594 34.7016 53.6459C34.2708 54.5106 34.0782 55.4582 34.1203 56.3974C34.1462 56.9846 34.2637 57.5669 34.4711 58.122C33.9843 58.2212 33.5157 58.364 33.0701 58.5458C31.6781 59.1135 30.5101 60.0616 29.6889 61.2473C28.864 62.4377 28.3906 63.8632 28.3906 65.3797C28.3906 66.0312 28.4777 66.6987 28.662 67.3713C28.1733 67.9258 27.7641 68.5565 27.4514 69.2485C27.0053 70.2347 26.7748 71.2544 26.7374 72.256C26.6809 73.7575 27.0625 75.2103 27.8024 76.4438C27.8875 76.586 27.9773 76.7254 28.072 76.8611C26.9213 78.6792 26.5378 80.5998 26.7732 82.3639C27.031 84.2912 28.0231 86.0226 29.5607 87.2301C29.8478 87.4557 30.1439 87.6581 30.4471 87.838L30.4514 87.8055C30.4273 87.9839 30.4097 88.1619 30.3982 88.3399C30.2747 90.2758 30.9101 92.1661 32.183 93.6524C32.8899 94.4776 33.7151 95.1186 34.6024 95.575C35.0957 95.8291 35.6081 96.0259 36.1304 96.1662C36.9865 97.478 37.9956 98.4354 39.0764 99.1012C40.6177 100.05 42.2903 100.397 43.8696 100.328C45.4409 100.26 46.925 99.777 48.0957 99.065C48.9852 98.5238 49.7065 97.8414 50.1664 97.0944C50.4768 96.5906 50.7289 96.0615 50.9245 95.5169ZM49.6227 49.6275L49.6107 49.6417C49.8082 49.7727 49.9915 49.9288 50.1568 50.1065C49.4645 61.7028 50.5978 81.9352 49.5884 93.6956C49.4447 94.562 49.1428 95.4063 48.6714 96.1712C48.3583 96.68 47.8382 97.1624 47.1796 97.5632C46.2453 98.1313 45.0569 98.5167 43.7935 98.5717C42.5381 98.6264 41.2131 98.3535 39.9995 97.6062C39.4942 97.2949 39.0058 96.9003 38.5463 96.4113L38.5725 96.4096C38.0855 95.8591 37.7659 95.2428 37.6447 94.6489C37.3872 94.6287 37.1299 94.5914 36.8748 94.5366L36.8655 94.5349C36.3667 94.427 35.8766 94.2527 35.4081 94.0116C34.7167 93.6558 34.0726 93.1548 33.5193 92.5092C32.5461 91.3728 32.0603 89.9286 32.1545 88.4501C32.1916 87.8718 32.3174 87.2871 32.5378 86.7115C32.0013 86.5864 31.4493 86.3466 30.9291 85.9927L30.9103 86.0406C30.8222 85.9781 30.735 85.9133 30.6491 85.8456C29.4709 84.9202 28.7119 83.6005 28.516 82.1365C28.3503 80.8956 28.5849 79.5444 29.305 78.2293C29.8172 78.6695 30.3963 79.0422 31.0354 79.3315C31.8983 79.7215 32.8715 79.958 33.9351 79.9978C34.4199 80.0148 34.8273 79.6356 34.8443 79.1507C34.8617 78.6654 34.4821 78.2584 33.9972 78.2411C33.1772 78.2105 32.4259 78.0278 31.759 77.7262C30.7103 77.2521 29.874 76.4806 29.3109 75.5417C28.7431 74.5948 28.4504 73.4766 28.4937 72.3183C28.5228 71.5452 28.7041 70.7504 29.0562 69.9718C29.2398 69.5661 29.4663 69.188 29.7302 68.8429C29.86 68.8521 29.9942 68.8326 30.1231 68.7804C30.574 68.5978 30.7913 68.084 30.6086 67.6335C30.4105 67.147 30.2801 66.6617 30.2118 66.1849C30.2075 66.1394 30.2037 66.0938 30.2006 66.048L30.1941 66.052C30.167 65.8258 30.1537 65.6014 30.1537 65.3798C30.1537 64.227 30.5119 63.1459 31.1353 62.2462C31.762 61.3419 32.6586 60.616 33.7314 60.1786C34.4505 59.8853 35.2501 59.7224 36.1028 59.7224C37.6009 59.7224 39.0135 60.292 40.0727 61.3234C41.0818 62.3059 41.7784 63.7124 41.9379 65.4537C41.9815 65.9367 42.4089 66.2931 42.892 66.2495C43.3751 66.2056 43.7314 65.7785 43.6875 65.2954C43.4872 63.1082 42.5947 61.3246 41.2987 60.0627C39.9605 58.7594 38.1998 58.0177 36.3284 57.9623C36.0531 57.4471 35.9016 56.8858 35.8766 56.3215C35.8481 55.6796 35.9813 55.0287 36.279 54.4313C36.754 53.4772 37.5693 52.8066 38.503 52.4938C39.4366 52.1807 40.4918 52.2249 41.4459 52.6999C41.8972 52.9246 42.2924 53.2291 42.6144 53.5925C42.938 53.9578 43.1924 54.3871 43.3602 54.8596C43.5215 55.318 44.0243 55.5584 44.4831 55.3971C44.9414 55.2355 45.1818 54.7326 45.0202 54.2743C44.7779 53.5904 44.4055 52.9651 43.9304 52.4283C43.4539 51.8902 42.8784 51.4448 42.2312 51.1225C41.8652 50.9404 41.4885 50.8017 41.1077 50.7052C41.7626 49.9907 42.6397 49.4177 43.6202 49.0462C44.666 48.6497 45.8243 48.4828 46.9524 48.6169C47.8858 48.7282 48.8034 49.0507 49.6227 49.6275Z" fill="#F3F3F3"/>
<path fill-rule="evenodd" clip-rule="evenodd" d="M42.0714 124.24C41.5169 124.795 40.7508 125.138 39.9048 125.138C39.4591 125.138 39.0346 125.042 38.652 124.871C38.2704 124.699 37.9293 124.452 37.6501 124.148L1.18334 124.153V108.855C0.824585 108.576 0.529144 108.218 0.323238 107.807C0.116544 107.394 0 106.928 0 106.436C0 105.59 0.343146 104.824 0.897634 104.269C1.45247 103.714 2.21857 103.371 3.06455 103.371C3.91053 103.371 4.67697 103.714 5.23155 104.269C5.7863 104.824 6.12945 105.59 6.12945 106.436C6.12945 106.865 6.04079 107.275 5.88145 107.645C5.72211 108.015 5.49209 108.348 5.20822 108.625V120.128L37.5397 120.124C37.8195 119.785 38.1734 119.506 38.5743 119.312C38.9772 119.118 39.4289 119.008 39.9048 119.008C40.7504 119.008 41.5169 119.352 42.0714 119.906C42.6262 120.461 42.9694 121.227 42.9694 122.073C42.9694 122.919 42.6262 123.685 42.0714 124.24Z" fill="#53D824"/>
<path fill-rule="evenodd" clip-rule="evenodd" d="M39.9048 22.2207C40.7504 22.2207 41.5169 22.5641 42.0714 23.1186C42.6262 23.6734 42.9694 24.4396 42.9694 25.2856C42.9694 26.1315 42.6262 26.898 42.0714 27.4525C41.5169 28.0073 40.7508 28.3505 39.9048 28.3505C39.4289 28.3505 38.9772 28.241 38.5743 28.0467C38.1734 27.8532 37.8195 27.5739 37.5397 27.2348L5.20822 27.2307V38.734C5.49209 39.0117 5.72211 39.3441 5.88145 39.7139C6.04079 40.0846 6.12945 40.4942 6.12945 40.9233C6.12945 41.7689 5.78569 42.5357 5.2312 43.0896C4.67697 43.6447 3.91053 43.9878 3.06455 43.9878C2.21857 43.9878 1.45247 43.6447 0.897634 43.0898C0.343759 42.5357 0 41.7689 0 40.9233C0 40.4315 0.116544 39.9653 0.323238 39.5527C0.529144 39.1417 0.824585 38.7835 1.18334 38.5043V23.2067L37.6501 23.2104C37.9293 22.907 38.2704 22.6595 38.652 22.4883C39.0346 22.3167 39.4591 22.2207 39.9048 22.2207Z" fill="#53D824"/>
<path fill-rule="evenodd" clip-rule="evenodd" d="M16.8638 62.0278H0V58.0031H12.9535V48.0783C12.6697 47.8007 12.4397 47.4679 12.2804 47.0984C12.121 46.7274 12.0323 46.3182 12.0323 45.8891C12.0323 45.0431 12.3755 44.2767 12.93 43.7221C13.4848 43.1674 14.2512 42.8242 15.0972 42.8242C15.9432 42.8242 16.7094 43.1674 17.2638 43.7221C17.8187 44.2767 18.1618 45.0431 18.1618 45.8891C18.1618 46.3805 18.0453 46.8464 17.8385 47.2592C17.6327 47.6697 17.337 48.0285 16.9781 48.3081V62.0278H16.8638Z" fill="#53D824"/>
<path fill-rule="evenodd" clip-rule="evenodd" d="M53.0676 27.4745V41.3437H49.0426V27.7042C48.6839 27.425 48.3884 27.0668 48.1826 26.6557C47.9762 26.2431 47.8594 25.777 47.8594 25.2856C47.8594 24.4396 48.2025 23.6732 48.7573 23.1183C49.3115 22.5645 50.0779 22.2207 50.9239 22.2207C51.7696 22.2207 52.5364 22.5645 53.0906 23.1186C53.6453 23.6732 53.9886 24.4396 53.9886 25.2856C53.9886 25.7143 53.8998 26.1239 53.7405 26.4945C53.5817 26.8644 53.3515 27.1972 53.0676 27.4745Z" fill="#53D824"/>
<path fill-rule="evenodd" clip-rule="evenodd" d="M59.9292 23.1186C60.4834 22.5647 61.2498 22.2207 62.0958 22.2207C62.5411 22.2207 62.9656 22.3167 63.3482 22.4883C63.7296 22.6595 64.0713 22.9073 64.3505 23.2104L100.817 23.2067V38.5043C101.176 38.7835 101.472 39.142 101.677 39.5527C101.884 39.9653 102.001 40.4315 102.001 40.9233C102.001 41.7689 101.657 42.5357 101.103 43.0896C100.548 43.6447 99.7817 43.9878 98.9357 43.9878C98.0897 43.9878 97.3236 43.6447 96.7688 43.0898C96.2149 42.5357 95.8712 41.7689 95.8712 40.9233C95.8712 40.4942 95.9598 40.0846 96.1192 39.7142C96.2779 39.3441 96.5083 39.0117 96.792 38.734V27.2307L64.4609 27.2348C64.1805 27.5739 63.8272 27.8532 63.4259 28.0467C63.0232 28.2412 62.5714 28.3505 62.0958 28.3505C61.2498 28.3505 60.4834 28.0067 59.9292 27.4522C59.3744 26.898 59.0312 26.1315 59.0312 25.2856C59.0312 24.4396 59.3744 23.6734 59.9292 23.1186Z" fill="#53D824"/>
<path fill-rule="evenodd" clip-rule="evenodd" d="M85.1379 85.1992H102.002V89.2238H89.0482V99.1483C89.3319 99.426 89.5623 99.7588 89.721 100.129C89.8804 100.499 89.969 100.909 89.969 101.338C89.969 102.184 89.6259 102.95 89.071 103.505C88.5169 104.059 87.7501 104.403 86.9045 104.403C86.0585 104.403 85.2921 104.059 84.7378 103.504C84.183 102.95 83.8398 102.184 83.8398 101.338C83.8398 100.846 83.9564 100.38 84.1632 99.9674C84.369 99.5566 84.6648 99.1981 85.0235 98.9189V85.1992H85.1379Z" fill="#53D824"/>
<path fill-rule="evenodd" clip-rule="evenodd" d="M80.38 49.7539H91.8579V57.2872H100.817V63.4742C101.176 63.7534 101.472 64.1119 101.677 64.5227C101.884 64.9359 102.001 65.4016 102.001 65.8932C102.001 66.7389 101.657 67.5056 101.103 68.0595C100.548 68.6146 99.7821 68.9578 98.9361 68.9578C98.0901 68.9578 97.3236 68.6146 96.7688 68.0598C96.2149 67.5056 95.8712 66.7389 95.8712 65.8932C95.8712 65.4641 95.9598 65.0545 96.1192 64.6839C96.2785 64.3141 96.5085 63.9816 96.7924 63.7036V61.3119H87.8329V53.7789H80.2656V49.7539H80.38Z" fill="#53D824"/>
<path fill-rule="evenodd" clip-rule="evenodd" d="M62.0958 125.138C61.2498 125.138 60.4834 124.794 59.9292 124.24C59.3744 123.685 59.0312 122.919 59.0312 122.073C59.0312 121.227 59.3744 120.461 59.9289 119.906C60.4834 119.352 61.2498 119.008 62.0958 119.008C62.5714 119.008 63.0232 119.118 63.4259 119.312C63.8272 119.506 64.1805 119.785 64.4609 120.124L96.792 120.129V108.625C96.5083 108.348 96.2779 108.015 96.1192 107.645C95.9598 107.275 95.8712 106.865 95.8712 106.436C95.8712 105.59 96.2143 104.824 96.7688 104.269C97.3236 103.714 98.0897 103.371 98.9357 103.371C99.7817 103.371 100.548 103.714 101.103 104.269C101.657 104.824 102.001 105.59 102.001 106.436C102.001 106.928 101.884 107.394 101.677 107.807C101.472 108.217 101.176 108.576 100.817 108.855V124.153L64.3505 124.148C64.0713 124.452 63.7296 124.699 63.3482 124.871C62.9656 125.042 62.5411 125.138 62.0958 125.138Z" fill="#53D824"/>
<path fill-rule="evenodd" clip-rule="evenodd" d="M53.0676 106.13V119.885C53.3515 120.162 53.5817 120.495 53.7405 120.865C53.8998 121.235 53.9886 121.645 53.9886 122.074C53.9886 122.92 53.6453 123.686 53.0908 124.241C52.5363 124.795 51.7696 125.138 50.9239 125.138C50.0779 125.138 49.3115 124.795 48.7576 124.24C48.2025 123.686 47.8594 122.92 47.8594 122.074C47.8594 121.582 47.9762 121.116 48.1826 120.703C48.3884 120.293 48.6842 119.934 49.0426 119.655V106.016H53.0676V106.13Z" fill="#53D824"/>
<path fill-rule="evenodd" clip-rule="evenodd" d="M21.6206 97.5047H10.1425V89.9713H1.1836V83.7844C0.824847 83.5051 0.529144 83.1467 0.32359 82.7356C0.116545 82.3233 0 81.8572 0 81.3654C0 80.5194 0.343146 79.7533 0.897634 79.1985C1.45247 78.644 2.21857 78.3008 3.06455 78.3008C3.91053 78.3008 4.67697 78.644 5.23155 79.1985C5.7863 79.7533 6.12945 80.5194 6.12945 81.3654C6.12945 81.7945 6.04079 82.2038 5.88145 82.5747C5.72237 82.9445 5.49235 83.2772 5.20822 83.5547V85.9467H14.1675V93.4797H21.735V97.5047H21.6206Z" fill="#53D824"/>
</svg>
